# xmcd
#
# Track frame offsets:
#	150
#	18996
#	34688
#	48035
#	65938
#	86624
#	105332
#	122949
#	142068
#
# Disc length: 2134 seconds
#
# Revision: 0
# Processed by: cddbd v1.5.2PL0 Copyright (c) Steve Scherf et al.
# Submitted via: dBpowerAMP V4.0
#
DISCID=77085409
DTITLE=Twins - PARTY (SA 版)
DYEAR=2007
DGENRE=Pop
TTITLE0=01 - 布拉格之戀
TTITLE1=02 - 相反詞 ( 蔡卓妍)
TTITLE2=03 - 愛情突擊
TTITLE3=04 - 絕對遷就
TTITLE4=05 - 傷心情歌
TTITLE5=06 - 金句
TTITLE6=07 - 世界變
TTITLE7=08 - 士氣
TTITLE8=09 - 黑馬(電影「甜心粉絲王」主題曲) 蔡卓妍
EXTD=
EXTT0=
EXTT1=
EXTT2=
EXTT3=
EXTT4=
EXTT5=
EXTT6=
EXTT7=
EXTT8=
PLAYORDER=
